<svg width="452" height="131" viewBox="0 0 452 131" fill="none" xmlns="http://www.w3.org/2000/svg">
<path d="M104.882 40.8153V114.024C104.885 118.328 103.194 122.458 100.18 125.508C97.1665 128.557 93.0759 130.276 88.8061 130.288H16.1331C14.0145 130.288 11.9166 129.868 9.95923 129.05C8.00187 128.233 6.22337 127.035 4.72528 125.525C3.22718 124.014 2.03882 122.221 1.22806 120.248C0.417295 118.275 0 116.16 0 114.024L0 40.8153C0.0030182 36.5006 1.70528 32.3636 4.73263 29.3137C7.75998 26.2638 11.8647 24.5506 16.1445 24.5506H18.3533C19.0672 24.5859 19.7404 24.8961 20.234 25.4173C20.7276 25.9384 21.004 26.6307 21.006 27.3513C21.1628 35.6535 24.5441 43.5623 30.4234 49.3777C36.3026 55.1932 44.2103 58.4511 52.4468 58.4511C60.6833 58.4511 68.591 55.1932 74.4702 49.3777C80.3495 43.5623 83.7309 35.6535 83.8876 27.3513C83.8895 26.6326 84.1642 25.9419 84.6555 25.4211C85.1467 24.9002 85.8171 24.5887 86.529 24.5506H88.8061C93.0749 24.5658 97.1638 26.2861 100.177 29.3347C103.19 32.3833 104.882 36.5116 104.882 40.8153Z" fill="#61C1D0"/>
<path d="M74.3123 100.089C74.3289 100.469 74.2209 100.844 74.0049 101.157L73.8455 101.363C73.5723 101.73 73.2763 102.086 72.9802 102.431C72.163 103.398 71.2764 104.303 70.3274 105.139C67.5623 107.586 64.3312 109.439 60.8317 110.585C57.3323 111.73 53.6379 112.144 49.9743 111.801C46.3108 111.459 42.755 110.366 39.5243 108.591C36.2936 106.816 33.4559 104.396 31.1845 101.478L31.1162 101.386L30.9454 101.157C30.71 100.851 30.5818 100.476 30.5811 100.089C30.5814 99.7279 30.6914 99.3755 30.8964 99.0793C31.1013 98.7831 31.3913 98.5573 31.7274 98.4323C32.0635 98.3072 32.4295 98.289 32.7762 98.38C33.1229 98.471 33.4336 98.6668 33.6665 98.9412C34.335 99.73 35.0579 100.47 35.8297 101.157C40.4208 105.148 46.3117 107.289 52.3727 107.171H52.5776C58.6201 107.24 64.4833 105.103 69.0864 101.157C69.5532 100.743 70.0087 100.296 70.4413 99.8365C70.669 99.607 70.8739 99.3774 71.0903 99.1249L71.17 99.0445L71.2383 98.9527C71.4016 98.7609 71.6042 98.6072 71.8323 98.5021C72.0603 98.3971 72.3083 98.3433 72.559 98.3444C73.0201 98.3443 73.4626 98.5274 73.7908 98.854C74.119 99.1805 74.3063 99.6242 74.3123 100.089Z" fill="white"/>
<path d="M38.2197 88.3584C27.8363 88.3584 27.8363 72.2888 38.2197 72.2888C48.6032 72.2888 48.6943 88.3584 38.2197 88.3584Z" fill="white"/>
<path d="M66.5913 88.3584C56.2078 88.3584 56.2078 72.2888 66.5913 72.2888C76.9748 72.2888 77.0659 88.3584 66.5913 88.3584Z" fill="white"/>
<path d="M52.4409 0.147825C47.1041 0.147825 41.8871 1.74328 37.4497 4.73244C33.0124 7.72159 29.5538 11.9702 27.5115 16.941C25.4692 21.9118 24.9349 27.3815 25.976 32.6584C27.0172 37.9354 29.5871 42.7826 33.3608 46.5871C37.1345 50.3915 41.9425 52.9824 47.1767 54.0321C52.411 55.0817 57.8364 54.543 62.767 52.484C67.6976 50.4251 71.9118 46.9383 74.8768 42.4647C77.8417 37.9912 79.4243 32.7316 79.4243 27.3513C79.4152 20.1393 76.5695 13.2253 71.5111 8.1256C66.4526 3.02593 59.5946 0.156937 52.4409 0.147825Z" fill="#61C1D0"/>
<path d="M70.3154 22.829V22.9323C70.3154 23.1275 70.3154 23.3111 70.3154 23.5062C70.2338 25.9209 69.4888 28.2654 68.1636 30.2784C68.0042 30.5309 67.8448 30.749 67.674 30.9901C64.1302 36.0343 59.5475 40.2472 54.2393 43.3407L53.9205 43.5243C53.4624 43.7604 52.9548 43.8824 52.4404 43.8802C51.9413 43.8863 51.4485 43.768 51.0058 43.5358L50.6415 43.3407C45.3405 40.2508 40.7652 36.0415 37.2295 31.0015C37.0929 30.8179 36.9562 30.6228 36.8196 30.4162C35.5356 28.5023 34.7739 26.2815 34.6108 23.9768V23.4948C34.6108 23.3111 34.6108 23.116 34.6108 22.9323V22.8749C34.6141 20.9265 35.1945 19.0235 36.2778 17.41C37.361 15.7964 38.8977 14.5458 40.6906 13.8186C41.8423 13.3539 43.0707 13.1124 44.3112 13.1069C45.6734 13.1057 47.0205 13.3945 48.2643 13.9542C49.5082 14.514 50.6209 15.3322 51.5295 16.3553L51.5978 16.4356C51.7125 16.5524 51.8491 16.645 51.9996 16.708C52.1501 16.7711 52.3115 16.8033 52.4745 16.8029C52.6451 16.8065 52.8144 16.7735 52.9714 16.7063C53.1284 16.639 53.2695 16.5389 53.3853 16.4127L53.4537 16.3323C54.7647 14.8703 56.4833 13.8417 58.3842 13.3815C60.2851 12.9213 62.2796 13.0508 64.1063 13.7532C65.9329 14.4555 67.5064 15.6979 68.6205 17.3175C69.7346 18.937 70.3373 20.8582 70.3496 22.829H70.3154Z" fill="#D53E36"/>
<path d="M57.3722 25.5608H54.913V23.1044C54.936 22.7639 54.8893 22.4222 54.7758 22.1006C54.6623 21.7791 54.4845 21.4844 54.2533 21.235C54.0222 20.9856 53.7427 20.7867 53.4321 20.6508C53.1216 20.5148 52.7866 20.4447 52.448 20.4447C52.1095 20.4447 51.7745 20.5148 51.464 20.6508C51.1534 20.7867 50.8739 20.9856 50.6428 21.235C50.4116 21.4844 50.2338 21.7791 50.1203 22.1006C50.0068 22.4222 49.9601 22.7639 49.9831 23.1044V25.5837H47.5125C46.8877 25.6266 46.3023 25.907 45.8748 26.3683C45.4473 26.8297 45.2095 27.4374 45.2095 28.0688C45.2095 28.7001 45.4473 29.3079 45.8748 29.7692C46.3023 30.2306 46.8877 30.511 47.5125 30.5538H49.9831V33.0331C49.9601 33.3737 50.0068 33.7154 50.1203 34.0369C50.2338 34.3585 50.4116 34.6532 50.6428 34.9026C50.8739 35.152 51.1534 35.3508 51.464 35.4868C51.7745 35.6228 52.1095 35.6929 52.448 35.6929C52.7866 35.6929 53.1216 35.6228 53.4321 35.4868C53.7427 35.3508 54.0222 35.152 54.2533 34.9026C54.4845 34.6532 54.6623 34.3585 54.7758 34.0369C54.8893 33.7154 54.936 33.3737 54.913 33.0331V30.5309H57.3722C57.997 30.488 58.5824 30.2076 59.0099 29.7463C59.4374 29.285 59.6752 28.6772 59.6752 28.0458C59.6752 27.4145 59.4374 26.8067 59.0099 26.3454C58.5824 25.8841 57.997 25.6036 57.3722 25.5608Z" fill="white"/>
<path d="M141.293 96.1635L138.811 99.32H138.48L136.078 96.1405V101.88H134.279V93.6956H136.34L138.685 96.8177L141.054 93.6956H143.092V101.822H141.293V96.1635Z" fill="#61C1D0"/>
<path d="M154.261 101.811H148.124V93.6842H154.101V95.3485H149.877V96.9096H153.851V98.505H149.877V100.135H154.261V101.811Z" fill="#61C1D0"/>
<path d="M162.206 93.6841C162.744 93.6373 163.285 93.7092 163.792 93.8948C164.299 94.0804 164.76 94.3752 165.143 94.7587C165.525 95.1422 165.82 95.6052 166.007 96.1154C166.194 96.6257 166.269 97.1708 166.225 97.713C166.271 98.2588 166.199 98.808 166.015 99.3232C165.83 99.8384 165.538 100.308 165.158 100.699C164.777 101.09 164.318 101.394 163.811 101.589C163.303 101.785 162.76 101.869 162.218 101.834H158.916V93.6841H162.206ZM160.681 100.135H162.206C162.527 100.159 162.848 100.11 163.147 99.9922C163.446 99.8741 163.715 99.6898 163.933 99.4528C164.152 99.2158 164.315 98.9322 164.41 98.6231C164.505 98.314 164.53 97.9873 164.483 97.6671C164.511 97.3586 164.472 97.0476 164.367 96.7562C164.263 96.4649 164.096 96.2003 163.879 95.9812C163.661 95.7622 163.399 95.594 163.11 95.4886C162.821 95.3832 162.512 95.3432 162.206 95.3714H160.681V100.135Z" fill="#61C1D0"/>
<path d="M170.782 101.811V93.6842H172.57V101.811H170.782Z" fill="#61C1D0"/>
<path d="M184.57 100.824C184.154 101.214 183.664 101.517 183.131 101.714C182.597 101.911 182.03 101.998 181.462 101.972C180.893 102.03 180.319 101.962 179.779 101.773C179.239 101.584 178.746 101.278 178.336 100.876C177.926 100.475 177.608 99.9878 177.405 99.4493C177.201 98.9108 177.117 98.3338 177.158 97.759C177.16 96.9087 177.413 96.0782 177.884 95.3728C178.354 94.6673 179.022 94.1187 179.803 93.7966C180.584 93.4744 181.441 93.3932 182.268 93.5633C183.094 93.7333 183.852 94.147 184.445 94.7517L183.306 95.8996C182.803 95.4471 182.147 95.205 181.473 95.2224C181.132 95.2087 180.791 95.2676 180.474 95.3953C180.157 95.5229 179.869 95.7164 179.631 95.9632C179.393 96.21 179.209 96.5046 179.09 96.8278C178.972 97.151 178.923 97.4957 178.946 97.8394C178.922 98.1797 178.971 98.5212 179.09 98.8406C179.208 99.16 179.394 99.45 179.634 99.6906C179.874 99.9313 180.162 100.117 180.479 100.235C180.797 100.354 181.136 100.402 181.473 100.376C182.205 100.363 182.908 100.086 183.454 99.5956L184.57 100.824Z" fill="#61C1D0"/>
<path d="M188.86 101.811V93.6842H190.647V101.811H188.86Z" fill="#61C1D0"/>
<path d="M201.283 98.9642L201.169 96.416V93.6842H202.98V101.811H201.431L197.424 96.5652L197.492 99.2282V101.765H195.682V93.6842H197.219L201.283 98.9642Z" fill="#61C1D0"/>
<path d="M213.715 100.422H209.582L208.99 101.811H207.066L210.63 93.6842H212.588L216.208 101.811H214.261L213.715 100.422ZM211.654 95.5207L210.265 98.8609H213.043L211.654 95.5207Z" fill="#61C1D0"/>
<path d="M221.343 102.982H220.467L220.637 101.834C220.464 101.825 220.301 101.748 220.184 101.619C220.067 101.49 220.005 101.32 220.011 101.145C220.037 100.915 220.145 100.702 220.316 100.548C220.488 100.393 220.709 100.308 220.939 100.308C221.169 100.308 221.391 100.393 221.562 100.548C221.733 100.702 221.842 100.915 221.867 101.145C221.779 101.779 221.603 102.397 221.343 102.982Z" fill="#61C1D0"/>
<path d="M236.44 102.006C235.613 101.979 234.811 101.707 234.135 101.225C233.46 100.742 232.94 100.07 232.64 99.2919C232.34 98.5137 232.273 97.6639 232.449 96.848C232.624 96.0321 233.033 95.2862 233.626 94.703C234.218 94.1197 234.968 93.7249 235.781 93.5676C236.594 93.4103 237.435 93.4974 238.2 93.8181C238.964 94.1388 239.618 94.679 240.081 95.3715C240.543 96.064 240.794 96.8783 240.801 97.713C240.837 98.2953 240.749 98.8787 240.541 99.4232C240.334 99.9678 240.012 100.461 239.598 100.868C239.184 101.276 238.687 101.589 238.142 101.785C237.597 101.981 237.017 102.057 236.44 102.006ZM236.44 95.119C236.1 95.1112 235.761 95.1728 235.445 95.3003C235.128 95.4278 234.841 95.6184 234.6 95.8607C234.358 96.103 234.168 96.392 234.04 96.7103C233.912 97.0286 233.85 97.3697 233.856 97.713C233.86 98.2301 234.017 98.7343 234.305 99.1619C234.594 99.5894 235.001 99.9213 235.477 100.116C235.952 100.31 236.474 100.358 236.976 100.253C237.478 100.149 237.939 99.8964 238.299 99.5284C238.659 99.1604 238.903 98.693 239 98.1852C239.098 97.6774 239.043 97.152 238.844 96.6754C238.645 96.1987 238.311 95.7921 237.883 95.507C237.455 95.2218 236.953 95.0708 236.44 95.073V95.119Z" fill="#61C1D0"/>
<path d="M248.669 93.6841C249.206 93.639 249.745 93.7122 250.251 93.8986C250.757 94.085 251.216 94.3801 251.598 94.7634C251.979 95.1467 252.273 95.6091 252.459 96.1184C252.646 96.6277 252.72 97.1718 252.677 97.7129C252.722 98.2587 252.65 98.8079 252.466 99.3232C252.281 99.8384 251.989 100.308 251.609 100.699C251.228 101.09 250.769 101.393 250.262 101.589C249.754 101.785 249.211 101.869 248.669 101.834H245.367V93.6841H248.669ZM247.143 100.135H248.669C248.989 100.159 249.311 100.11 249.61 99.9922C249.908 99.8741 250.177 99.6897 250.396 99.4527C250.615 99.2157 250.778 98.9322 250.873 98.6231C250.968 98.314 250.993 97.9872 250.946 97.667C250.974 97.3585 250.934 97.0475 250.83 96.7562C250.725 96.4649 250.558 96.2003 250.341 95.9812C250.124 95.7621 249.861 95.5939 249.572 95.4885C249.283 95.3832 248.975 95.3432 248.669 95.3714H247.143V100.135Z" fill="#61C1D0"/>
<path d="M261.159 102.006C260.332 101.979 259.53 101.707 258.855 101.225C258.179 100.742 257.659 100.07 257.359 99.2917C257.059 98.5136 256.993 97.6637 257.168 96.8479C257.343 96.032 257.753 95.2861 258.345 94.7028C258.938 94.1196 259.687 93.7248 260.5 93.5674C261.313 93.4101 262.155 93.4972 262.919 93.818C263.684 94.1387 264.338 94.6789 264.8 95.3714C265.263 96.0639 265.513 96.8781 265.52 97.7129C265.557 98.2952 265.468 98.8785 265.261 99.4231C265.053 99.9677 264.731 100.461 264.317 100.868C263.903 101.276 263.406 101.589 262.862 101.785C262.317 101.981 261.736 102.057 261.159 102.006ZM261.159 95.1188C260.815 95.1108 260.472 95.1738 260.153 95.3041C259.834 95.4344 259.544 95.6291 259.302 95.8763C259.06 96.1236 258.871 96.4181 258.746 96.7419C258.62 97.0656 258.562 97.4117 258.575 97.7588C258.579 98.2759 258.736 98.7801 259.024 99.2076C259.313 99.6352 259.72 99.9671 260.196 100.161C260.671 100.355 261.193 100.403 261.695 100.299C262.198 100.194 262.658 99.9422 263.018 99.5742C263.379 99.2061 263.623 98.7387 263.72 98.231C263.817 97.7232 263.762 97.1978 263.564 96.7212C263.365 96.2445 263.03 95.8379 262.602 95.5527C262.174 95.2676 261.672 95.1166 261.159 95.1188Z" fill="#61C1D0"/>
<path d="M275.696 98.9642L275.526 96.416V93.6842H277.336V101.811H275.799L271.837 96.5652L271.905 99.2282V101.765H270.083V93.6842H271.621L275.696 98.9642Z" fill="#61C1D0"/>
<path d="M284.168 95.2911H281.708V93.6842H288.403V95.2911H285.944V101.811H284.168V95.2911Z" fill="#61C1D0"/>
<path d="M296.487 102.006C295.659 101.979 294.858 101.707 294.182 101.225C293.507 100.742 292.986 100.07 292.687 99.2919C292.387 98.5137 292.32 97.6639 292.496 96.848C292.671 96.0321 293.08 95.2862 293.673 94.703C294.265 94.1197 295.015 93.7249 295.828 93.5676C296.641 93.4103 297.482 93.4974 298.247 93.8181C299.011 94.1388 299.665 94.679 300.128 95.3715C300.59 96.064 300.841 96.8783 300.848 97.713C300.884 98.2953 300.796 98.8787 300.588 99.4232C300.381 99.9678 300.059 100.461 299.645 100.868C299.231 101.276 298.734 101.589 298.189 101.785C297.644 101.981 297.064 102.057 296.487 102.006ZM296.487 95.119C296.143 95.1109 295.8 95.1739 295.481 95.3042C295.161 95.4345 294.872 95.6292 294.63 95.8765C294.388 96.1237 294.198 96.4183 294.073 96.742C293.948 97.0657 293.89 97.4118 293.903 97.759C293.907 98.276 294.063 98.7802 294.352 99.2078C294.64 99.6354 295.048 99.9672 295.523 100.161C295.999 100.356 296.521 100.404 297.023 100.299C297.525 100.195 297.986 99.9424 298.346 99.5743C298.706 99.2063 298.95 98.7389 299.047 98.2311C299.144 97.7233 299.09 97.198 298.891 96.7213C298.692 96.2446 298.358 95.8381 297.93 95.5529C297.502 95.2677 297 95.1167 296.487 95.119Z" fill="#61C1D0"/>
<path d="M307.212 93.6842V100.146H311.242V101.811H305.413V93.6842H307.212Z" fill="#61C1D0"/>
<path d="M319.316 102.006C318.488 101.979 317.687 101.707 317.011 101.225C316.335 100.742 315.815 100.07 315.515 99.2917C315.215 98.5136 315.149 97.6637 315.324 96.8479C315.5 96.032 315.909 95.2861 316.501 94.7028C317.094 94.1196 317.843 93.7248 318.656 93.5674C319.47 93.4101 320.311 93.4972 321.075 93.818C321.84 94.1387 322.494 94.6789 322.956 95.3714C323.419 96.0639 323.669 96.8781 323.676 97.7129C323.713 98.2952 323.624 98.8785 323.417 99.4231C323.209 99.9677 322.887 100.461 322.473 100.868C322.059 101.276 321.563 101.589 321.018 101.785C320.473 101.981 319.892 102.057 319.316 102.006ZM319.316 95.1188C318.971 95.1108 318.629 95.1738 318.309 95.3041C317.99 95.4344 317.7 95.6291 317.458 95.8763C317.216 96.1236 317.027 96.4181 316.902 96.7419C316.777 97.0656 316.719 97.4117 316.731 97.7588C316.736 98.2759 316.892 98.7801 317.181 99.2076C317.469 99.6352 317.877 99.9671 318.352 100.161C318.827 100.355 319.349 100.403 319.852 100.299C320.354 100.194 320.814 99.9422 321.175 99.5742C321.535 99.2061 321.779 98.7387 321.876 98.231C321.973 97.7232 321.919 97.1978 321.72 96.7212C321.521 96.2445 321.186 95.8379 320.759 95.5527C320.331 95.2676 319.829 95.1166 319.316 95.1188Z" fill="#61C1D0"/>
<path d="M333.967 95.8193C333.444 95.356 332.773 95.0991 332.077 95.0961C331.731 95.0672 331.384 95.1155 331.059 95.2376C330.734 95.3597 330.439 95.5527 330.197 95.8026C329.954 96.0526 329.77 96.3534 329.656 96.6837C329.542 97.0139 329.502 97.3655 329.538 97.7132C329.513 98.0583 329.562 98.4048 329.68 98.7297C329.798 99.0546 329.983 99.3505 330.223 99.5979C330.463 99.8452 330.753 100.038 331.072 100.165C331.392 100.291 331.734 100.347 332.077 100.33C332.699 100.348 333.308 100.145 333.796 99.7563V98.5052H331.872V96.9901H335.345V100.537C334.968 101.046 334.47 101.451 333.897 101.714C333.324 101.977 332.694 102.089 332.066 102.04C331.487 102.071 330.909 101.982 330.365 101.779C329.822 101.577 329.325 101.265 328.905 100.863C328.485 100.461 328.151 99.9769 327.922 99.4403C327.694 98.9037 327.576 98.3258 327.576 97.7419C327.576 97.1579 327.694 96.5801 327.922 96.0435C328.151 95.5069 328.485 95.0228 328.905 94.6207C329.325 94.2186 329.822 93.9068 330.365 93.7044C330.909 93.502 331.487 93.4131 332.066 93.4433C332.626 93.4234 333.184 93.5247 333.703 93.7405C334.221 93.9563 334.688 94.2816 335.071 94.6944L333.967 95.8193Z" fill="#61C1D0"/>
<path d="M340.014 101.811V93.6842H341.802V101.811H340.014Z" fill="#61C1D0"/>
<path d="M352.537 100.422H348.393L347.812 101.811H345.877L349.532 93.6842H351.49L355.11 101.811H353.164L352.537 100.422ZM350.477 95.5207L349.088 98.8609H351.866L350.477 95.5207Z" fill="#61C1D0"/>
<path d="M370.89 101.811H364.742V93.6842H370.72V95.3485H366.507V96.9096H370.48V98.505H366.507V100.135H370.89V101.811Z" fill="#61C1D0"/>
<path d="M387.626 101.811H381.489V93.6842H387.467V95.3485H383.254V96.9096H387.227V98.5051H383.254V100.135H387.626V101.811Z" fill="#61C1D0"/>
<path d="M397.224 93.6842H399.194V93.7645L396.484 97.7131L399.239 101.742H397.247L395.345 98.8838L393.455 101.742H391.463L394.195 97.7131L391.497 93.7531V93.6727H393.467L395.345 96.5652L397.224 93.6842Z" fill="#61C1D0"/>
<path d="M409.156 100.422H405.023L404.431 101.811H402.496L406.116 93.6842H408.074L411.684 101.811H409.748L409.156 100.422ZM407.095 95.5207L405.695 98.8609H408.473L407.095 95.5207Z" fill="#61C1D0"/>
<path d="M422.786 96.1635L420.304 99.32H419.974L417.571 96.1405V101.88H415.772V93.6956H417.845L420.201 96.8177L422.558 93.6956H424.596V101.822H422.797L422.786 96.1635Z" fill="#61C1D0"/>
<path d="M435.754 101.811H429.617V93.6842H435.595V95.3485H431.371V96.9096H435.344V98.5051H431.371V100.135H435.754V101.811Z" fill="#61C1D0"/>
<path d="M445.169 95.6469C444.657 95.1841 443.989 94.9375 443.302 94.9583C442.505 94.9583 441.867 95.2911 441.867 95.8536C441.867 96.5996 442.562 96.7374 443.598 96.8292C445.192 96.967 446.695 97.5868 446.695 99.4692C446.695 101.352 445.044 102.063 443.279 102.075C442.599 102.119 441.92 101.989 441.303 101.698C440.686 101.407 440.152 100.964 439.75 100.41L440.82 99.2626C441.124 99.624 441.502 99.914 441.929 100.112C442.356 100.311 442.82 100.412 443.29 100.41C444.247 100.41 444.907 100.02 444.907 99.4463C444.907 98.8723 444.372 98.4477 443.279 98.2984C441.571 98.1263 440.057 97.7016 440.08 95.7847C440.08 94.1663 441.605 93.3054 443.268 93.3054C443.832 93.26 444.399 93.3508 444.922 93.5703C445.445 93.7899 445.908 94.1319 446.273 94.568L445.169 95.6469Z" fill="#61C1D0"/>
<path d="M153.157 53.6939H161.526C161.657 53.6939 161.786 53.7201 161.907 53.771C162.028 53.8219 162.138 53.8965 162.23 53.9905C162.322 54.0844 162.395 54.1958 162.444 54.3183C162.493 54.4408 162.518 54.5719 162.516 54.704V82.0567C162.516 82.3215 162.412 82.5755 162.226 82.7628C162.04 82.9501 161.788 83.0553 161.526 83.0553H153.351C153.114 83.0552 152.885 82.9695 152.705 82.8137C152.526 82.6578 152.407 82.4422 152.372 82.2059L152.315 81.7927C152.289 81.62 152.218 81.4572 152.11 81.3207C152.001 81.1842 151.859 81.0787 151.698 81.0148C151.537 80.9509 151.362 80.9308 151.19 80.9565C151.019 80.9823 150.857 81.0529 150.721 81.1614C149.77 81.9284 148.685 82.5086 147.522 82.8717C145.877 83.4135 144.15 83.6583 142.421 83.5948C140.45 83.5109 138.516 83.035 136.728 82.1944C135.126 81.4331 133.702 80.3377 132.55 78.9805C131.395 77.6008 130.521 76.0056 129.977 74.2859C129.377 72.3744 129.081 70.3793 129.1 68.3746C129.079 66.3108 129.418 64.2593 130.102 62.3141C130.723 60.5227 131.695 58.8754 132.96 57.4703C134.215 56.0936 135.738 54.9919 137.434 54.2334C139.267 53.4392 141.246 53.0479 143.241 53.0856C145.042 53.0326 146.834 53.3773 148.489 54.0957C149.213 54.4379 149.887 54.8782 150.493 55.4042C150.626 55.5232 150.788 55.6044 150.962 55.6394C151.137 55.6745 151.317 55.6622 151.485 55.6038C151.653 55.5454 151.803 55.443 151.919 55.307C152.034 55.1711 152.112 55.0065 152.144 54.8303V54.5777C152.175 54.3303 152.296 54.1031 152.483 53.9399C152.67 53.7768 152.91 53.6891 153.157 53.6939ZM145.734 61.9009C144.964 61.8841 144.199 62.025 143.485 62.3151C142.77 62.6051 142.122 63.0382 141.578 63.5882C140.992 64.2303 140.54 64.9853 140.251 65.8078C139.961 66.6304 139.84 67.5035 139.893 68.3746C139.835 69.2409 139.955 70.1101 140.244 70.9277C140.534 71.7454 140.989 72.4939 141.578 73.1266C142.127 73.6663 142.777 74.0888 143.491 74.3688C144.205 74.6489 144.968 74.7808 145.734 74.7565C146.584 74.7715 147.427 74.5991 148.205 74.2515C148.933 73.9315 149.586 73.4579 150.118 72.8626C150.65 72.2623 151.063 71.5649 151.336 70.808C151.613 70.0154 151.751 69.1805 151.746 68.3402C151.834 66.6256 151.277 64.9405 150.186 63.6226C149.611 63.0282 148.916 62.5665 148.147 62.2692C147.379 61.972 146.556 61.8463 145.734 61.9009Z" fill="#61C1D0"/>
<path d="M186.39 83.0554C186.259 83.057 186.129 83.0322 186.007 82.9827C185.886 82.9332 185.775 82.8599 185.682 82.767C185.589 82.6742 185.515 82.5636 185.464 82.4416C185.414 82.3197 185.388 82.1889 185.388 82.0568V66.7219C185.508 65.4876 185.228 64.2472 184.591 63.1866C184.314 62.8555 183.963 62.5948 183.568 62.4253C183.172 62.2558 182.743 62.1824 182.314 62.2109C181.345 62.2448 180.426 62.6563 179.752 63.3587C179.312 63.8366 178.972 64.3991 178.753 65.0125C178.534 65.6259 178.44 66.2776 178.477 66.9285V82.0568C178.477 82.188 178.451 82.3178 178.401 82.439C178.352 82.5601 178.279 82.6702 178.187 82.7629C178.095 82.8557 177.986 82.9292 177.865 82.9794C177.745 83.0296 177.616 83.0554 177.486 83.0554H168.685C168.423 83.0554 168.171 82.9502 167.985 82.7629C167.799 82.5757 167.695 82.3217 167.695 82.0568V54.7041C167.693 54.572 167.718 54.4409 167.767 54.3184C167.816 54.196 167.889 54.0845 167.981 53.9906C168.073 53.8966 168.183 53.822 168.304 53.7711C168.425 53.7202 168.554 53.694 168.685 53.694H176.052C176.275 53.6972 176.49 53.7742 176.665 53.9132C176.84 54.0522 176.964 54.2455 177.02 54.4631L177.156 55.014C177.194 55.1811 177.275 55.3354 177.39 55.4616C177.505 55.5877 177.651 55.6815 177.813 55.7336C177.975 55.7857 178.147 55.7944 178.314 55.7588C178.48 55.7232 178.634 55.6446 178.761 55.5306C179.471 54.8862 180.283 54.3663 181.164 53.9925C182.566 53.3732 184.085 53.0714 185.615 53.1086C187.072 53.1331 188.502 53.4986 189.794 54.1761C190.736 54.6579 191.554 55.3533 192.185 56.2078C192.27 56.3247 192.38 56.4216 192.506 56.492C192.632 56.5623 192.772 56.6043 192.916 56.6152C193.06 56.6261 193.204 56.6056 193.339 56.5551C193.474 56.5046 193.597 56.4253 193.699 56.3226C194.67 55.3299 195.832 54.5486 197.115 54.0269C198.845 53.3494 200.689 53.0143 202.546 53.0398C204.042 53.0284 205.527 53.293 206.929 53.8203C208.281 54.3261 209.495 55.1483 210.47 56.2193C211.549 57.4522 212.353 58.9044 212.827 60.4777C213.436 62.4968 213.724 64.6004 213.68 66.7104V82.0568C213.68 82.3217 213.576 82.5757 213.39 82.7629C213.205 82.9502 212.953 83.0554 212.69 83.0554H203.798C203.535 83.0554 203.283 82.9502 203.098 82.7629C202.912 82.5757 202.807 82.3217 202.807 82.0568V66.7219C202.914 65.5359 202.586 64.3516 201.885 63.3932C201.631 63.0833 201.313 62.8326 200.953 62.6582C200.593 62.4839 200.201 62.39 199.802 62.3831C198.852 62.4019 197.941 62.7598 197.229 63.3932C196.789 63.8428 196.454 64.3844 196.245 64.9795C196.036 65.5745 195.96 66.2086 196.022 66.8366V82.0568C196.022 82.3217 195.917 82.5757 195.732 82.7629C195.546 82.9502 195.294 83.0554 195.031 83.0554H186.39Z" fill="#61C1D0"/>
<path d="M233.548 53.0398C235.663 53.0329 237.768 53.3344 239.798 53.9351C241.734 54.4972 243.538 55.4457 245.104 56.7243C246.664 58.0413 247.919 59.6868 248.781 61.5452C249.752 63.7065 250.226 66.0604 250.17 68.4321C250.233 70.8106 249.738 73.1703 248.724 75.3191C247.823 77.1718 246.524 78.799 244.922 80.0826C243.336 81.3353 241.528 82.2704 239.593 82.8374C237.632 83.4297 235.595 83.7313 233.548 83.7327C231.474 83.7338 229.411 83.4323 227.422 82.8374C225.481 82.2804 223.666 81.3444 222.083 80.0826C220.5 78.7931 219.221 77.1663 218.337 75.3191C217.346 73.1638 216.863 70.8068 216.925 68.4321C216.858 66.0164 217.341 63.6174 218.337 61.4189C219.217 59.5655 220.496 57.934 222.083 56.644C223.652 55.382 225.456 54.4492 227.388 53.9007C229.391 53.3243 231.465 53.0345 233.548 53.0398ZM233.548 74.8485C234.369 74.8879 235.189 74.7437 235.949 74.4262C236.709 74.1087 237.389 73.6257 237.942 73.012C239.03 71.7653 239.608 70.149 239.559 68.4895C239.561 67.672 239.422 66.8604 239.149 66.0906C238.901 65.3398 238.515 64.6428 238.011 64.036C237.492 63.4319 236.852 62.9466 236.132 62.6127C235.332 62.2572 234.467 62.0737 233.593 62.0737C232.719 62.0737 231.854 62.2572 231.054 62.6127C230.337 62.9502 229.697 63.435 229.176 64.036C228.672 64.6428 228.286 65.3398 228.037 66.0906C227.764 66.8604 227.626 67.672 227.627 68.4895C227.602 70.1179 228.155 71.7018 229.187 72.9546C229.735 73.5633 230.411 74.0409 231.165 74.3527C231.92 74.6645 232.734 74.8025 233.548 74.7567V74.8485Z" fill="#61C1D0"/>
<path d="M263.299 54.4974V54.727C263.333 54.9051 263.414 55.0705 263.535 55.2054C263.655 55.3404 263.809 55.4397 263.981 55.4928C264.154 55.5459 264.337 55.5508 264.511 55.5069C264.686 55.4629 264.845 55.3719 264.972 55.2435C265.502 54.6923 266.122 54.238 266.805 53.9005C268.055 53.2929 269.426 52.9789 270.813 52.9823C272.267 52.9715 273.709 53.2443 275.06 53.7857C276.103 54.1974 277.064 54.7963 277.895 55.5534C278.066 55.7067 278.18 55.9138 278.219 56.1409C278.259 56.3681 278.22 56.602 278.111 56.8045L274.696 63.0602C274.627 63.1792 274.534 63.283 274.425 63.3652C274.315 63.4475 274.19 63.5064 274.057 63.5386C273.924 63.5708 273.786 63.5755 273.651 63.5524C273.516 63.5294 273.387 63.4791 273.272 63.4045C272.785 63.0724 272.257 62.8062 271.701 62.6125C270.913 62.3642 270.09 62.2441 269.265 62.2567C267.963 62.2277 266.699 62.695 265.724 63.5652C265.19 64.1182 264.782 64.7811 264.526 65.5082C264.271 66.2353 264.175 67.0095 264.244 67.7777V82.0567C264.244 82.3215 264.139 82.5755 263.954 82.7628C263.768 82.9501 263.516 83.0553 263.253 83.0553H254.395C254.133 83.0553 253.881 82.9501 253.695 82.7628C253.509 82.5755 253.405 82.3215 253.405 82.0567V54.704C253.403 54.5719 253.428 54.4408 253.477 54.3183C253.526 54.1958 253.599 54.0844 253.691 53.9904C253.783 53.8965 253.893 53.8219 254.014 53.771C254.135 53.7201 254.264 53.6939 254.395 53.6939H262.365C262.587 53.7045 262.799 53.7892 262.968 53.9346C263.137 54.0801 263.254 54.278 263.299 54.4974Z" fill="#61C1D0"/>
<path d="M283.86 73.0463C283.917 72.9183 283.999 72.8038 284.102 72.7101C284.206 72.6164 284.327 72.5456 284.459 72.5023C284.591 72.459 284.731 72.4442 284.869 72.4588C285.007 72.4734 285.141 72.5171 285.261 72.5871C285.977 73.015 286.718 73.3983 287.481 73.735C288.4 74.1535 289.352 74.4951 290.327 74.7565C291.108 74.9607 291.904 75.0989 292.707 75.1697L294.688 75.319C296.646 75.319 297.637 74.8369 297.637 73.8842C297.637 72.9315 296.612 72.4379 294.563 72.2887C293.105 72.2409 291.656 72.0486 290.236 71.7148C288.808 71.4039 287.441 70.8529 286.194 70.0849C284.992 69.3498 283.975 68.344 283.223 67.1464C282.468 65.7729 282.072 64.2286 282.072 62.6584C282.072 61.0883 282.468 59.544 283.223 58.1704C283.986 56.9609 285.014 55.9439 286.229 55.1976C287.547 54.4002 288.991 53.8372 290.498 53.5332C292.147 53.1948 293.825 53.0256 295.508 53.0282C297.765 53.0152 300.01 53.3481 302.168 54.0153C303.706 54.4739 305.177 55.1379 306.54 55.9896C306.656 56.0617 306.756 56.1568 306.834 56.2691C306.912 56.3815 306.966 56.5086 306.994 56.6428C307.022 56.7771 307.022 56.9156 306.995 57.05C306.968 57.1843 306.914 57.3117 306.836 57.4243L303.318 62.4174C303.186 62.6115 302.989 62.7509 302.763 62.8099C302.537 62.869 302.297 62.8437 302.088 62.7388L301.348 62.4174C300.734 62.1707 300.102 61.9711 299.458 61.8205C298.789 61.6676 298.113 61.5488 297.432 61.4647C296.793 61.3894 296.151 61.3511 295.508 61.3499C294.868 61.327 294.23 61.4283 293.629 61.6483C293.404 61.738 293.213 61.8976 293.084 62.104C292.955 62.3104 292.895 62.5528 292.912 62.7962C292.943 63.1353 293.092 63.4524 293.333 63.6915C293.833 64.0879 294.463 64.2805 295.098 64.231C296.661 64.2704 298.219 64.4393 299.754 64.736C301.234 64.9859 302.664 65.4742 303.99 66.1823C305.269 66.8768 306.363 67.8731 307.178 69.0863C308.05 70.5103 308.479 72.1658 308.407 73.8383C308.442 75.4438 308.049 77.0294 307.269 78.4296C306.529 79.6915 305.498 80.7547 304.263 81.5287C302.927 82.3518 301.459 82.9344 299.925 83.2504C298.252 83.6094 296.546 83.7864 294.836 83.7784C293.541 83.7743 292.248 83.6861 290.965 83.5144C289.677 83.3387 288.4 83.0896 287.139 82.7684C285.955 82.4958 284.797 82.1194 283.678 81.6435C282.937 81.3077 282.219 80.9243 281.526 80.4957C281.317 80.3686 281.162 80.1691 281.088 79.9345C281.015 79.6999 281.029 79.4464 281.128 79.2216L283.86 73.0463Z" fill="#D53E36"/>
<path d="M335.266 53.6939H343.634C343.765 53.6939 343.895 53.7201 344.016 53.771C344.137 53.8219 344.246 53.8965 344.339 53.9904C344.431 54.0844 344.503 54.1958 344.552 54.3183C344.602 54.4408 344.626 54.5719 344.625 54.704V82.0567C344.625 82.3215 344.52 82.5755 344.334 82.7628C344.149 82.9501 343.897 83.0553 343.634 83.0553H335.459C335.222 83.0552 334.993 82.9695 334.814 82.8136C334.634 82.6578 334.516 82.4422 334.48 82.2059L334.412 81.7927C334.388 81.6201 334.318 81.457 334.211 81.3201C334.104 81.1832 333.963 81.0773 333.803 81.0132C333.642 80.949 333.467 80.929 333.296 80.955C333.125 80.981 332.964 81.0522 332.829 81.1614C331.876 81.9308 330.786 82.5112 329.619 82.8716C327.978 83.4143 326.255 83.6591 324.529 83.5948C322.559 83.5109 320.624 83.035 318.837 82.1944C317.232 81.4315 315.804 80.3365 314.647 78.9805C313.499 77.5981 312.629 76.0036 312.085 74.2859C311.48 72.3757 311.184 70.3797 311.208 68.3746C311.187 66.3108 311.526 64.2593 312.21 62.3141C312.831 60.5226 313.803 58.8754 315.068 57.4702C316.319 56.0886 317.844 54.986 319.543 54.2334C321.375 53.4392 323.355 53.0479 325.349 53.0856C327.151 53.0325 328.942 53.3773 330.598 54.0956C331.32 54.4352 331.99 54.8757 332.59 55.4042C332.722 55.5269 332.884 55.6114 333.059 55.6486C333.235 55.6858 333.417 55.6744 333.586 55.6155C333.755 55.5566 333.906 55.4524 334.021 55.3142C334.137 55.1759 334.213 55.0086 334.241 54.8302V54.5777C334.272 54.3283 334.394 54.0994 334.584 53.936C334.773 53.7726 335.017 53.6862 335.266 53.6939ZM327.831 61.9009C327.061 61.8841 326.296 62.025 325.582 62.3151C324.867 62.6051 324.219 63.0382 323.675 63.5882C323.089 64.2303 322.637 64.9853 322.348 65.8078C322.058 66.6304 321.937 67.5035 321.99 68.3746C321.932 69.2409 322.052 70.1101 322.341 70.9277C322.631 71.7454 323.086 72.4939 323.675 73.1266C324.224 73.6662 324.874 74.0888 325.588 74.3688C326.302 74.6489 327.065 74.7808 327.831 74.7565C328.681 74.77 329.524 74.5977 330.302 74.2515C331.03 73.9314 331.683 73.4579 332.214 72.8626C332.747 72.2646 333.157 71.5664 333.421 70.808C333.707 70.0175 333.85 69.1816 333.843 68.3402C333.933 66.6234 333.371 64.9365 332.271 63.6226C331.698 63.0297 331.005 62.5689 330.238 62.2717C329.472 61.9745 328.651 61.848 327.831 61.9009Z" fill="#D53E36"/>
<path d="M359.506 53.6938C359.808 53.6938 360.098 53.8147 360.311 54.03C360.525 54.2453 360.645 54.5372 360.645 54.8416V69.9241C360.625 70.7044 360.745 71.4819 360.997 72.2197C361.201 72.782 361.515 73.2972 361.92 73.7349C362.27 74.1261 362.718 74.4154 363.218 74.5728C363.705 74.7235 364.211 74.8009 364.72 74.8023C365.972 74.7972 367.182 74.3459 368.136 73.5282C368.689 72.9919 369.114 72.3364 369.381 71.6109C369.647 70.8854 369.747 70.1086 369.673 69.3387V54.8531C369.673 54.5487 369.793 54.2567 370.007 54.0415C370.22 53.8262 370.51 53.7053 370.812 53.7053H379.237C379.539 53.7053 379.828 53.8262 380.042 54.0415C380.255 54.2567 380.375 54.5487 380.375 54.8531V81.8959C380.375 82.2003 380.255 82.4923 380.042 82.7075C379.828 82.9228 379.539 83.0437 379.237 83.0437H371.848C371.571 83.0465 371.304 82.9478 371.094 82.7662C370.885 82.5846 370.748 82.3324 370.709 82.0566C370.681 81.854 370.6 81.6627 370.474 81.5025C370.348 81.3422 370.181 81.2188 369.992 81.1451C369.803 81.0714 369.598 81.0499 369.397 81.0831C369.197 81.1162 369.009 81.2026 368.853 81.3335C367.992 82.0159 367.027 82.5546 365.996 82.9289C364.458 83.4977 362.829 83.7778 361.191 83.7554C359.711 83.7618 358.24 83.5333 356.83 83.0782C355.456 82.6151 354.211 81.8281 353.198 80.7825C352.072 79.57 351.227 78.119 350.728 76.5356C350.064 74.4133 349.757 72.1943 349.817 69.97V54.8531C349.817 54.5487 349.937 54.2567 350.151 54.0415C350.364 53.8262 350.654 53.7053 350.956 53.7053L359.506 53.6938Z" fill="#D53E36"/>
<path d="M375.251 41.2056C375.205 41.1212 375.138 41.0509 375.056 41.0024C374.973 40.9538 374.879 40.9288 374.784 40.9301H365.676C365.438 40.9265 365.205 40.9916 365.003 41.1177C364.801 41.2439 364.64 41.4257 364.537 41.6417L360.917 49.3551C360.875 49.4366 360.855 49.5274 360.859 49.6189C360.863 49.7103 360.891 49.7992 360.939 49.8768C360.987 49.9543 361.054 50.0179 361.134 50.0613C361.214 50.1046 361.304 50.1263 361.395 50.1242H369.012C369.212 50.1252 369.41 50.0777 369.588 49.9858C369.766 49.894 369.92 49.7604 370.036 49.5962L375.262 41.7565C375.311 41.6725 375.336 41.5766 375.334 41.4794C375.332 41.3822 375.303 41.2874 375.251 41.2056Z" fill="#D53E36"/>
<path d="M406.925 40.9301H415.783C416.046 40.9301 416.298 41.0353 416.483 41.2226C416.669 41.4098 416.773 41.6638 416.773 41.9287V82.1026C416.773 82.3675 416.669 82.6215 416.483 82.8087C416.298 82.996 416.046 83.1012 415.783 83.1012H407.961C407.724 83.1011 407.495 83.0154 407.315 82.8596C407.136 82.7037 407.017 82.4881 406.982 82.2518V81.8386C406.956 81.6659 406.885 81.5031 406.777 81.3666C406.668 81.2301 406.527 81.1246 406.365 81.0607C406.204 80.9968 406.029 80.9767 405.857 81.0025C405.686 81.0282 405.524 81.0988 405.388 81.2073C404.437 81.9743 403.352 82.5545 402.189 82.9176C400.544 83.4594 398.817 83.7042 397.088 83.6407C392.807 83.3576 389.517 81.919 387.217 79.3249C384.917 76.7308 383.779 73.096 383.801 68.4205C383.773 66.3188 384.113 64.2285 384.803 62.2452C385.424 60.4538 386.396 58.8065 387.661 57.4014C388.907 56.0281 390.434 54.9433 392.136 54.2219C393.973 53.4436 395.949 53.053 397.942 53.0741C399.601 53.0312 401.253 53.3158 402.804 53.912C403.396 54.1475 403.961 54.4477 404.489 54.8073C404.638 54.9071 404.812 54.9641 404.991 54.9721C405.17 54.9801 405.348 54.9389 405.506 54.8529C405.664 54.7668 405.796 54.6392 405.887 54.4836C405.979 54.328 406.027 54.1503 406.026 53.9694V41.9287C406.025 41.679 406.116 41.438 406.283 41.2532C406.449 41.0683 406.679 40.953 406.925 40.9301ZM400.333 61.9009C399.569 61.8888 398.81 62.032 398.102 62.3219C397.394 62.6117 396.751 63.0424 396.211 63.5882C395.625 64.2303 395.173 64.9853 394.884 65.8078C394.594 66.6304 394.473 67.5035 394.526 68.3746C394.468 69.2409 394.588 70.1101 394.877 70.9277C395.167 71.7454 395.622 72.4939 396.211 73.1266C396.756 73.662 397.401 74.0821 398.109 74.362C398.816 74.642 399.573 74.7761 400.333 74.7565C401.178 74.7705 402.015 74.59 402.781 74.2285C403.469 73.8952 404.088 73.4315 404.602 72.8626C405.096 72.2911 405.482 71.6338 405.741 70.9228C406.016 70.1894 406.155 69.4112 406.151 68.6271C406.151 67.7599 406.025 66.8974 405.775 66.0675C405.531 65.2802 405.145 64.5448 404.637 63.8981C404.138 63.2827 403.517 62.7785 402.815 62.4174C402.04 62.0482 401.189 61.8711 400.333 61.9009Z" fill="#D53E36"/>
<path d="M436.232 52.9477C438.646 52.9131 441.044 53.3376 443.302 54.1989C445.331 54.9701 447.144 56.2266 448.585 57.8604C450.018 59.5235 451.009 61.5258 451.466 63.6799C451.94 65.9816 451.94 68.357 451.466 70.6587C451.418 70.8875 451.293 71.0926 451.113 71.2391C450.932 71.3856 450.707 71.4645 450.475 71.4622H432.702C432.508 71.4599 432.316 71.5156 432.153 71.6223C431.989 71.729 431.861 71.882 431.783 72.0621C431.705 72.2422 431.682 72.4414 431.716 72.6348C431.75 72.8282 431.839 73.0072 431.974 73.1495C432.466 73.6111 433.022 73.9978 433.625 74.2973C434.242 74.6061 434.896 74.8338 435.572 74.9745C436.192 75.1162 436.826 75.1893 437.462 75.1926C438.9 75.2191 440.332 74.9979 441.697 74.5383C442.597 74.2168 443.46 73.7973 444.27 73.2872C444.466 73.1611 444.7 73.1103 444.93 73.144C445.16 73.1778 445.37 73.2938 445.522 73.4709L449.587 78.0622C449.675 78.1601 449.742 78.2747 449.785 78.3993C449.828 78.5239 449.846 78.6559 449.837 78.7875C449.829 78.9191 449.794 79.0476 449.735 79.1655C449.677 79.2835 449.595 79.3883 449.496 79.474C447.923 80.8011 446.12 81.8245 444.179 82.4928C441.861 83.2772 439.429 83.6651 436.983 83.6406C434.77 83.6552 432.566 83.3538 430.437 82.7453C428.483 82.1942 426.654 81.2665 425.051 80.0135C423.467 78.755 422.202 77.1339 421.363 75.2844C420.413 73.1175 419.95 70.7657 420.008 68.3975C419.955 66.0237 420.438 63.6689 421.42 61.5105C422.285 59.6481 423.553 58.0048 425.131 56.7011C426.686 55.4428 428.463 54.4926 430.368 53.9004C432.264 53.2856 434.241 52.9643 436.232 52.9477ZM440.24 64.426C440.417 64.4284 440.592 64.3825 440.747 64.2931C440.901 64.2037 441.028 64.0741 441.116 63.918C441.203 63.7618 441.247 63.5849 441.243 63.4056C441.239 63.2264 441.187 63.0515 441.093 62.8994C440.997 62.7578 440.89 62.6236 440.775 62.4976C440.243 61.9707 439.595 61.5775 438.885 61.3498C438.107 61.0837 437.292 60.9404 436.471 60.9251C435.641 60.9062 434.814 61.0264 434.023 61.281C433.287 61.5108 432.61 61.9029 432.042 62.4288C431.909 62.5555 431.787 62.6937 431.678 62.842C431.573 62.9922 431.512 63.1687 431.5 63.3519C431.488 63.5351 431.527 63.718 431.611 63.8805C431.696 64.043 431.824 64.1789 431.98 64.2731C432.136 64.3673 432.315 64.4162 432.497 64.4145L440.24 64.426Z" fill="#D53E36"/>
</svg>
